- 
http://www.Speed.Cd 
       
http://www.Speed.Cd       the fast  and The Hottest Private Tracker on the net

(((--Registration will be open on june every weekend--)))

Please Seed back to make the speed Faster!!!

------------------nfo--------------------------
-








































          
          
              
              
                    
                    
                    
                    

Bloodlust.Zombies.2011.DVDSCR.XviD-SiC

Poster:
[img]http://leetleech.org/images/59371001983330947612.jpg[/img]

IMDB Link:
http://www.imdb.com/title/tt1904850/

Description:
A military weapons manufacturer creates a chemical weapon that causes victims to become blood-lusting killers. A lab accident causes the building to go into lock-down and the employees are trapped inside with the crazed killers. 

General
Complete name                    : Bloodlust.Zombies.2011.DVDSCR.XviD-SiC.avi
Format                           : AVI
Format/Info                      : Audio Video Interleave
File size                        : 700 MiB
Duration                         : 1h 16mn
Overall bit rate                 : 1 287 Kbps
Writing application              : VirtualDubMod 1.5.4.1 (build 2178/release)
Writing library                  : VirtualDubMod build 2178/release

Video
ID                               : 0
Format                           : MPEG-4 Visual
Format profile                   : Advanced Simple@L5
Format settings, BVOP            : 1
Format settings, QPel            : No
Format settings, GMC             : No warppoints
Format settings, Matrix          : Custom
Codec ID                         : XVID
Codec ID/Hint                    : XviD
Duration                         : 1h 16mn
Bit rate                         : 1 169 Kbps
Width                            : 720 pixels
Height                           : 416 pixels
Display aspect ratio             : 16:9
Frame rate                       : 23.976 fps
Color space                      : YUV
Chroma subsampling               : 4:2:0
Bit depth                        : 8 bits
Scan type                        : Progressive
Compression mode                 : Lossy
Bits/(Pixel*Frame)               : 0.163
Stream size                      : 636 MiB (91%)
Writing library                  : XviD 63

Audio
ID                               : 1
Format                           : MPEG Audio
Format version                   : Version 1
Format profile                   : Layer 3
Mode                             : Joint stereo
Mode extension                   : MS Stereo
Codec ID                         : 55
Codec ID/Hint                    : MP3
Duration                         : 1h 16mn
Bit rate mode                    : Variable
Bit rate                         : 106 Kbps
Nominal bit rate                 : 128 Kbps
Channel(s)                       : 2 channels
Sampling rate                    : 48.0 KHz
Compression mode                 : Lossy
Stream size                      : 57.5 MiB (8%)
Alignment                        : Aligned on interleaves
Interleave, duration             : 24 ms (0.58 video frame)
Interleave, preload duration     : 174 ms
Writing library                  : LAME3.98r
Encoding settings                : -m j -V 4 -q 2 -lowpass 17 --abr 128
Language                         : English



Screenshots:
[img]http://leetleech.org/images/85748844447654173994.png[/img]
[img]http://leetleech.org/images/54671561956115311556.png[/img]
[img]http://leetleech.org/images/33085372177731372165.png[/img]
[img]http://leetleech.org/images/35667493631727801274.png[/img]
[img]http://leetleech.org/images/75571027470164102902.png[/img]

Note: N/A

Encoder: thefuzz

Enjoy!

Respects to CaptainHomey, Cyanide, CM8, Rx, Pirate666, THC, ELEKTRI4KA, Killerhz, 
XtremE, PA, YeFsTe, Empire and everyone in the struggle...